<svg width="323" height="40" viewBox="0 0 323 40" fill="none" xmlns="http://www.w3.org/2000/svg">
<path d="M17.584 33.28L0.496 23.488V20.32L17.584 10.528L19.264 13.168L2.272 22.96V20.848L19.264 30.64L17.584 33.28ZM30.0573 23.68L29.9133 19.216L48.9213 0.399998H53.9613L30.0573 23.68ZM27.2253 34V0.399998H30.9693V34H27.2253ZM49.7373 34L36.2493 16.048L38.9853 13.648L54.4413 34H49.7373ZM59.2038 34V30.448H64.6278V3.952H59.2038V0.399998H73.7958V3.952H68.3718V30.448H73.7958V34H59.2038ZM88.2119 34V4.048H78.6119V0.399998H101.94V4.048H91.9559V34H88.2119ZM108.272 34V0.399998H128.624V4.048H112.016V30.352H128.528V34H108.272ZM110 18.544V14.896H125.936V18.544H110ZM146.799 34.48C145.103 34.48 143.503 34.24 141.999 33.76C140.495 33.28 139.119 32.56 137.871 31.6C136.623 30.64 135.519 29.456 134.559 28.048L137.151 25.168C138.655 27.312 140.191 28.816 141.759 29.68C143.359 30.544 145.151 30.976 147.135 30.976C148.575 30.976 149.887 30.736 151.071 30.256C152.255 29.776 153.183 29.104 153.855 28.24C154.527 27.376 154.863 26.384 154.863 25.264C154.863 24.528 154.735 23.872 154.479 23.296C154.255 22.72 153.903 22.208 153.423 21.76C152.943 21.312 152.351 20.912 151.647 20.56C150.943 20.208 150.127 19.888 149.199 19.6C148.303 19.312 147.295 19.024 146.174 18.736C144.543 18.352 143.103 17.904 141.855 17.392C140.639 16.848 139.599 16.192 138.735 15.424C137.903 14.656 137.263 13.776 136.815 12.784C136.399 11.76 136.191 10.56 136.191 9.184C136.191 7.872 136.463 6.656 137.007 5.536C137.583 4.416 138.367 3.456 139.359 2.656C140.351 1.824 141.519 1.184 142.863 0.735999C144.207 0.287999 145.647 0.0639992 147.183 0.0639992C148.911 0.0639992 150.447 0.303999 151.791 0.783998C153.167 1.232 154.383 1.904 155.439 2.8C156.495 3.696 157.407 4.768 158.175 6.016L155.535 8.608C154.863 7.552 154.095 6.64 153.231 5.872C152.399 5.104 151.471 4.528 150.447 4.144C149.455 3.728 148.351 3.52 147.135 3.52C145.727 3.52 144.479 3.76 143.391 4.24C142.335 4.72 141.503 5.392 140.895 6.256C140.287 7.088 139.983 8.048 139.983 9.136C139.983 9.936 140.127 10.656 140.415 11.296C140.703 11.904 141.151 12.448 141.759 12.928C142.399 13.376 143.215 13.792 144.207 14.176C145.231 14.528 146.447 14.864 147.855 15.184C149.519 15.568 151.007 16.032 152.319 16.576C153.663 17.12 154.799 17.776 155.727 18.544C156.687 19.28 157.407 20.144 157.887 21.136C158.399 22.128 158.655 23.264 158.655 24.544C158.655 26.528 158.159 28.272 157.167 29.776C156.175 31.248 154.783 32.4 152.991 33.232C151.231 34.064 149.167 34.48 146.799 34.48ZM188.674 34V0.399998H192.418V34H188.674ZM166.21 34V0.399998H169.954V34H166.21ZM168.034 19.072V15.424H190.258V19.072H168.034ZM200.719 34V30.448H206.143V3.952H200.719V0.399998H215.311V3.952H209.887V30.448H215.311V34H200.719ZM226.464 23.68L226.32 19.216L245.328 0.399998H250.368L226.464 23.68ZM223.632 34V0.399998H227.376V34H223.632ZM246.144 34L232.656 16.048L235.392 13.648L250.848 34H246.144ZM255.61 34V30.448H261.034V3.952H255.61V0.399998H270.202V3.952H264.778V30.448H270.202V34H255.61ZM275.354 39.712L294.842 0.399998H298.442L279.05 39.712H275.354ZM305.094 33.28L303.414 30.64L320.454 20.848V22.96L303.414 13.168L305.094 10.528L322.23 20.32V23.488L305.094 33.28Z" fill="black"/>
</svg>
